<svg xmlns="http://www.w3.org/2000/svg" class="a-svg" viewBox="0 0 770 300" fill="#8E9196" role="img" aria-labelledby="logo-ivv-title" focusable="false"><title id="logo-ivv-title"/><path fill="#8E9196" stroke="black" stroke-width="0" d="M 70.00,80.00 C 70.00,80.00 70.00,10.00 70.00,10.00 70.00,10.00 360.00,10.00 360.00,10.00 360.00,10.00 360.00,80.00 360.00,80.00 360.00,80.00 340.00,80.00 340.00,80.00 340.00,80.00 340.00,30.00 340.00,30.00 340.00,30.00 90.00,30.00 90.00,30.00 90.00,30.00 90.00,80.00 90.00,80.00 90.00,80.00 70.00,80.00 70.00,80.00 Z M 10.00,100.00 C 10.00,100.00 150.00,100.00 150.00,100.00 150.00,100.00 150.00,120.00 150.00,120.00 150.00,120.00 10.00,120.00 10.00,120.00 10.00,120.00 10.00,100.00 10.00,100.00 Z M 10.00,140.00 C 10.00,140.00 150.00,140.00 150.00,140.00 150.00,140.00 150.00,160.00 150.00,160.00 150.00,160.00 10.00,160.00 10.00,160.00 10.00,160.00 10.00,140.00 10.00,140.00 Z M 10.00,180.00 C 10.00,180.00 150.00,180.00 150.00,180.00 150.00,180.00 150.00,200.00 150.00,200.00 150.00,200.00 10.00,200.00 10.00,200.00 10.00,200.00 10.00,180.00 10.00,180.00 Z M 70.00,220.00 C 70.00,220.00 90.00,220.00 90.00,220.00 90.00,220.00 90.00,270.00 90.00,270.00 90.00,270.00 340.00,270.00 340.00,270.00 340.00,270.00 340.00,220.00 340.00,220.00 340.00,220.00 360.00,220.00 360.00,220.00 360.00,220.00 360.00,290.00 360.00,290.00 360.00,290.00 70.00,290.00 70.00,290.00 70.00,290.00 70.00,220.00 70.00,220.00 Z"/><path fill="#0055A6" stroke="black" stroke-width="0" d="M 280.00,80.00 C 280.00,80.00 410.00,150.00 410.00,150.00 410.00,150.00 280.00,220.00 280.00,220.00 280.00,220.00 280.00,80.00 280.00,80.00 Z M 470.00,70.00 C 470.00,70.00 470.00,100.00 470.00,100.00 470.00,100.00 500.00,100.00 500.00,100.00 500.00,100.00 500.00,70.00 500.00,70.00 500.00,70.00 470.00,70.00 470.00,70.00 Z M 470.00,120.00 C 470.00,120.00 500.00,120.00 500.00,120.00 500.00,120.00 500.00,230.00 500.00,230.00 500.00,230.00 470.00,230.00 470.00,230.00 470.00,230.00 470.00,120.00 470.00,120.00 Z M 520.00,120.00 C 520.00,120.00 560.00,230.00 560.00,230.00 560.00,230.00 590.00,230.00 590.00,230.00 590.00,230.00 630.00,120.00 630.00,120.00 630.00,120.00 600.00,120.00 600.00,120.00 600.00,120.00 575.00,190.50 575.00,190.50 575.00,190.50 550.00,120.00 550.00,120.00 550.00,120.00 520.00,120.00 520.00,120.00 Z M 650.00,120.00 C 650.00,120.00 690.00,230.00 690.00,230.00 690.00,230.00 720.00,230.00 720.00,230.00 720.00,230.00 760.00,120.00 760.00,120.00 760.00,120.00 730.00,120.00 730.00,120.00 730.00,120.00 705.33,190.00 705.33,190.00 705.33,190.00 680.00,120.00 680.00,120.00 680.00,120.00 650.00,120.00 650.00,120.00 Z"/></svg>